<?xml version="1.0" standalone="no"?>
<!DOCTYPE svg PUBLIC "-//W3C//DTD SVG 20010904//EN"
 "http://www.w3.org/TR/2001/REC-SVG-20010904/DTD/svg10.dtd">
<svg version="1.0" xmlns="http://www.w3.org/2000/svg"
 width="661.000000pt" height="613.000000pt" viewBox="0 0 661.000000 613.000000"
 preserveAspectRatio="xMidYMid meet">

<g transform="translate(0.000000,613.000000) scale(0.100000,-0.100000)"
fill="#000000" stroke="none">
<path d="M2855 5995 c-11 -8 -54 -19 -95 -26 -41 -6 -142 -34 -224 -60 -83
-27 -166 -54 -186 -59 -20 -5 -56 -28 -79 -49 -24 -22 -57 -43 -73 -46 -25 -6
-111 -56 -128 -74 -3 -4 -30 -18 -62 -33 -34 -16 -71 -44 -94 -72 -21 -25 -44
-46 -51 -46 -7 0 -13 -3 -13 -8 0 -4 -16 -32 -36 -62 -21 -33 -33 -61 -30 -73
8 -32 -10 -61 -78 -130 -61 -60 -136 -177 -136 -211 0 -8 -11 -33 -25 -58 -15
-27 -22 -52 -18 -66 5 -20 7 -21 18 -6 6 10 17 14 23 10 8 -5 2 -24 -18 -63
-28 -51 -30 -63 -28 -143 2 -63 -1 -92 -11 -104 -11 -13 -11 -22 -3 -39 18
-36 9 -95 -16 -113 -25 -17 -28 -36 -9 -53 11 -8 12 -21 4 -58 -13 -62 -12
-160 1 -176 6 -7 9 -44 7 -86 -2 -43 1 -81 8 -91 8 -14 8 -25 -1 -44 -7 -15
-8 -35 -4 -48 5 -13 6 -64 4 -114 l-4 -91 -65 -37 c-36 -20 -68 -36 -72 -36
-3 0 -19 -30 -35 -65 -32 -71 -32 -81 -6 -335 5 -52 10 -160 10 -240 0 -119 4
-162 24 -238 13 -51 31 -101 40 -111 16 -18 46 -115 46 -151 0 -19 5 -33 54
-142 14 -31 26 -60 26 -65 0 -15 52 -52 83 -59 28 -6 35 -2 79 47 l47 54 1
-32 c0 -18 4 -33 8 -33 5 0 14 -42 20 -92 6 -51 19 -133 27 -183 24 -138 30
-242 15 -260 -11 -13 -10 -29 3 -88 9 -40 23 -133 32 -207 9 -79 24 -153 35
-178 11 -24 50 -79 87 -122 38 -43 92 -108 120 -144 29 -36 92 -98 140 -138
48 -40 123 -107 168 -148 107 -101 128 -115 254 -165 59 -24 130 -54 157 -68
27 -13 60 -28 74 -32 14 -4 84 -29 157 -56 109 -40 150 -50 245 -59 62 -6 131
-16 153 -20 54 -13 260 -12 325 0 86 16 143 49 250 144 73 66 99 94 95 107 -4
12 1 20 15 24 20 6 28 25 10 25 -18 0 -10 22 10 27 24 6 25 12 4 27 -13 10
-13 16 -3 38 11 26 12 26 45 10 19 -8 34 -19 34 -24 0 -18 30 -6 58 21 21 22
28 37 25 55 -3 15 2 31 14 43 27 27 34 50 17 57 -8 3 -14 12 -14 20 0 9 -8 32
-17 52 -14 30 -15 38 -5 42 7 2 17 15 23 29 5 13 14 21 19 18 16 -10 68 17 73
37 7 25 34 23 42 -3 4 -13 1 -27 -9 -38 -21 -24 -20 -34 7 -62 48 -50 61 -51
99 -11 47 50 89 107 124 167 15 28 34 56 40 62 7 7 24 38 39 69 25 53 26 57 9
75 -16 18 -16 20 -1 32 10 6 19 21 21 32 2 11 7 33 11 48 6 22 3 33 -13 47
-17 16 -21 17 -26 5 -8 -23 -44 -18 -57 7 -19 36 -17 266 3 305 12 24 14 42 7
75 -12 64 -11 68 16 68 16 0 28 7 31 18 3 9 11 31 19 47 33 74 26 134 -31 248
-13 27 -24 63 -24 80 0 38 -53 117 -102 153 -18 14 -39 36 -46 49 -7 14 -18
25 -26 25 -7 0 -23 12 -37 26 -13 14 -46 37 -74 51 -42 22 -57 25 -109 19 -38
-4 -64 -2 -72 5 -10 9 -14 9 -14 0 0 -6 -7 -11 -15 -11 -8 0 -15 -6 -15 -14 0
-13 29 -75 40 -86 3 -3 24 -33 47 -67 82 -122 66 -187 -47 -188 -68 0 -76 -6
-117 -98 -21 -46 -33 -61 -61 -73 -84 -35 -95 -3 -26 72 38 41 44 54 40 78 -4
16 -6 34 -6 40 0 6 -20 32 -45 58 -43 46 -56 80 -35 93 7 4 9 52 7 133 -5 137
2 115 -93 305 -8 16 -14 37 -14 48 0 21 -47 72 -92 102 -50 32 -35 52 34 47
14 -1 29 3 32 8 12 20 -19 89 -60 135 -24 27 -47 61 -51 76 -7 30 -72 101 -92
101 -17 0 -91 76 -91 93 0 7 -11 28 -25 47 -14 19 -25 44 -25 56 0 33 -150
166 -203 181 -48 13 -46 14 46 18 53 2 85 -2 140 -22 106 -36 204 -60 286 -68
68 -7 72 -9 66 -29 -14 -46 -16 -153 -4 -196 7 -25 12 -69 11 -99 -2 -63 9
-81 50 -81 30 0 45 20 32 42 -5 7 -7 39 -5 70 1 31 -1 63 -6 70 -4 7 -13 27
-19 45 -17 47 7 65 79 62 50 -2 58 0 80 27 l26 29 -24 8 c-45 16 -32 55 46
135 14 15 29 37 33 50 4 12 15 22 24 22 36 0 -7 21 -54 26 -42 5 -52 3 -68
-15 -19 -21 -55 -26 -90 -12 -16 6 -13 10 21 24 46 18 92 72 75 89 -7 7 -22 6
-47 -2 -22 -7 -58 -10 -86 -7 -27 3 -51 2 -54 -4 -8 -12 -117 -12 -151 2 -16
5 -43 26 -61 45 -25 25 -42 34 -67 34 -25 0 -38 7 -50 25 -14 22 -24 25 -72
25 -86 0 -163 50 -133 86 8 10 4 19 -17 39 -15 14 -30 25 -35 25 -4 0 -5 9 -2
20 3 11 9 20 14 20 17 0 9 27 -16 50 -15 14 -25 33 -23 45 3 17 11 20 68 23
35 2 73 -1 85 -7 11 -5 43 -12 72 -16 29 -3 71 -12 94 -20 47 -17 59 -13 59
19 0 41 23 59 79 63 63 3 121 38 156 92 31 50 61 71 102 71 19 0 37 7 45 18 7
10 41 42 75 72 40 34 65 64 69 83 5 25 8 27 22 14 38 -32 68 -18 86 41 4 13
18 27 31 32 17 7 24 19 29 55 5 29 3 51 -4 60 -8 10 -6 28 10 74 22 66 26 106
10 116 -13 8 -13 61 0 85 8 15 1 39 -35 114 -48 101 -54 126 -30 126 7 0 19 8
24 18 10 15 11 15 17 -5 3 -13 10 -23 15 -23 10 0 44 -76 54 -119 3 -17 11
-33 16 -36 5 -4 9 -43 10 -88 1 -115 9 -129 37 -67 21 45 21 52 8 73 -9 12
-20 56 -26 96 -10 73 -8 102 5 62 9 -29 25 -26 25 4 0 14 -4 25 -10 25 -5 0
-10 11 -10 25 0 14 3 25 8 25 11 0 81 -69 100 -99 24 -37 45 -61 54 -61 4 0
-7 21 -26 48 -18 26 -48 74 -65 106 -47 88 -67 110 -176 190 -90 66 -145 97
-220 126 -14 5 -57 30 -94 55 -38 24 -86 51 -107 59 -58 22 -209 44 -389 56
-88 6 -218 17 -290 25 -170 19 -363 19 -390 0z m1144 -432 c11 -9 18 -21 14
-25 -5 -10 -43 19 -43 34 0 12 8 10 29 -9z m261 -37 c0 -9 -7 -16 -15 -16 -10
0 -15 10 -15 31 0 27 2 29 15 15 8 -8 15 -22 15 -30z m177 -18 c-3 -8 -6 -5
-6 6 -1 11 2 17 5 13 3 -3 4 -12 1 -19z m-197 -186 c0 -16 5 -33 12 -40 9 -9
8 -21 -1 -53 -17 -56 -26 -41 -26 44 0 60 -3 72 -17 75 -14 3 -18 -4 -18 -30
0 -18 -5 -40 -10 -48 -7 -11 -10 -3 -10 28 0 25 6 50 15 58 8 9 15 25 15 37 0
19 3 17 20 -11 11 -18 20 -45 20 -60z m-63 -104 c-3 -7 -5 -2 -5 12 0 14 2 19
5 13 2 -7 2 -19 0 -25z m123 7 c0 -8 -4 -15 -10 -15 -5 0 -10 7 -10 15 0 8 5
15 10 15 6 0 10 -7 10 -15z m-50 -160 c0 -11 -5 -27 -10 -35 -23 -34 -34 35
-12 74 6 12 22 -15 22 -39z m-50 -69 c0 -8 -7 -16 -15 -20 -10 -4 -15 1 -15
14 0 11 7 20 15 20 8 0 15 -6 15 -14z m-2510 -940 c0 -36 -32 -86 -56 -86 -22
0 -17 29 11 66 14 18 25 37 25 43 0 6 5 11 10 11 6 0 10 -15 10 -34z m1763
-59 c18 -8 59 -22 92 -31 33 -10 74 -22 91 -27 17 -5 49 -9 71 -9 23 0 60 -9
84 -20 24 -11 62 -20 84 -20 53 0 73 -13 56 -34 -7 -9 -18 -13 -24 -9 -5 3
-15 -1 -22 -10 -7 -10 -40 -21 -84 -29 -64 -11 -74 -10 -101 6 -18 10 -39 15
-50 11 -13 -4 -31 1 -49 14 -16 12 -35 21 -43 21 -21 0 -118 48 -149 74 -15
13 -34 26 -41 29 -10 3 -8 10 6 26 22 25 36 26 79 8z m-33 -483 c12 -25 19
-48 16 -52 -4 -3 -9 4 -13 16 -3 12 -11 22 -18 22 -16 0 -29 35 -20 50 10 15
12 13 35 -36z m-303 -320 c-3 -3 -12 -4 -19 -1 -8 3 -5 6 6 6 11 1 17 -2 13
-5z m-1550 -486 c-3 -7 -5 -2 -5 12 0 14 2 19 5 13 2 -7 2 -19 0 -25z m43
-276 l22 -18 -20 -24 c-20 -24 -20 -25 -41 -6 -48 43 -11 89 39 48z m2633
-202 c-3 -11 -14 -20 -24 -20 -17 0 -18 3 -7 20 7 11 18 20 24 20 7 0 10 -8 7
-20z m27 -280 c0 -20 -5 -30 -15 -30 -18 0 -18 1 -5 34 13 34 20 33 20 -4z
m-100 -73 c0 -4 -5 -18 -11 -29 -9 -17 -13 -18 -20 -7 -11 17 -12 63 -2 73 8
7 33 -21 33 -37z m-40 -96 c0 -16 -7 -34 -15 -41 -8 -7 -15 -18 -15 -26 0 -17
-34 -36 -53 -28 -8 3 -32 -6 -52 -21 -21 -14 -50 -28 -63 -32 -26 -6 -132 24
-132 38 0 16 81 71 110 74 17 2 37 11 46 20 8 8 30 15 47 15 18 1 43 7 57 15
14 8 35 14 48 15 18 0 22 -5 22 -29z m186 -102 c-3 -17 0 -44 8 -64 8 -18 12
-35 10 -38 -2 -2 3 -24 11 -48 20 -55 20 -201 1 -283 -9 -37 -11 -69 -6 -87 5
-17 5 -29 -1 -29 -5 0 -9 -9 -9 -19 0 -30 -19 -35 -42 -11 -29 31 -48 11 -27
-28 20 -38 14 -92 -12 -92 -10 0 -19 3 -19 8 0 4 -13 13 -29 20 -25 11 -35 11
-65 -2 -20 -8 -36 -19 -36 -25 0 -5 -13 -14 -30 -19 -19 -7 -40 -28 -57 -56
-15 -26 -32 -46 -37 -46 -17 0 -56 43 -56 61 0 10 -9 23 -20 29 -11 6 -20 18
-20 26 0 8 -14 21 -31 28 -29 12 -45 31 -68 82 -5 12 -21 24 -35 28 -17 4 -26
13 -26 26 0 24 12 31 53 32 17 0 44 9 58 19 14 10 48 19 75 21 45 3 50 5 59
35 6 17 18 40 28 51 23 25 21 37 -8 56 -14 9 -25 23 -25 30 0 7 -10 26 -22 41
-21 27 -21 28 -2 42 18 14 17 14 -14 8 -19 -4 -38 -2 -46 4 -9 8 -22 8 -44 0
-22 -7 -36 -7 -51 1 -30 15 -26 27 12 35 17 4 48 17 67 29 19 13 67 33 105 46
39 12 77 28 85 35 8 7 34 16 58 20 24 4 63 18 88 32 34 19 53 24 79 19 22 -4
35 -3 35 4 0 5 3 10 6 10 4 0 4 -14 0 -31z m-793 -15 c-4 -12 -8 -13 -14 -3
-9 15 -2 32 11 24 5 -3 6 -13 3 -21z m1127 -72 c0 -9 -5 -24 -10 -32 -7 -11
-10 -5 -10 23 0 23 4 36 10 32 6 -3 10 -14 10 -23z m-260 -493 c0 -10 -4 -19
-10 -19 -5 0 -10 12 -10 26 0 14 4 23 10 19 6 -3 10 -15 10 -26z m119 -103 c9
-10 7 -16 -5 -27 -13 -10 -17 -10 -24 1 -9 14 -3 40 10 40 4 0 13 -6 19 -14z
m-291 -108 c-1 -18 3 -33 10 -36 13 -4 17 -32 5 -32 -19 1 -30 18 -36 56 -4
22 -4 44 0 47 12 13 23 -5 21 -35z"/>
<path d="M4480 5350 c0 -16 5 -30 10 -30 6 0 10 14 10 30 0 17 -4 30 -10 30
-5 0 -10 -13 -10 -30z"/>
<path d="M4360 5231 c0 -6 5 -13 10 -16 6 -3 10 1 10 9 0 9 -4 16 -10 16 -5 0
-10 -4 -10 -9z"/>
<path d="M3867 4214 c-4 -4 -7 -17 -7 -30 0 -17 7 -23 31 -26 34 -5 49 14 32
41 -11 17 -44 26 -56 15z"/>
<path d="M3740 4170 c0 -5 7 -10 16 -10 8 0 12 5 9 10 -3 6 -10 10 -16 10 -5
0 -9 -4 -9 -10z"/>
<path d="M4122 3578 c-20 -10 -22 -17 -17 -49 6 -33 3 -39 -24 -58 -17 -13
-34 -34 -38 -49 -3 -15 -17 -35 -30 -45 -24 -19 -31 -51 -13 -62 16 -10 11
-65 -9 -93 -28 -40 -33 -67 -25 -128 6 -50 12 -63 54 -105 27 -27 51 -49 55
-49 8 0 91 -56 121 -82 11 -10 54 -28 95 -40 41 -12 83 -30 95 -40 11 -10 28
-18 38 -18 21 0 76 -28 76 -39 0 -4 11 -13 25 -19 22 -10 27 -9 41 14 16 24
16 26 -5 45 -22 21 -28 39 -11 39 6 0 10 -7 10 -15 0 -20 7 -19 54 8 32 19 39
28 40 55 1 35 1 35 -62 32 -35 -1 -49 4 -77 29 l-34 30 33 11 c19 6 51 31 72
55 42 50 59 58 124 59 38 1 45 4 50 26 4 17 13 25 28 24 31 -1 33 18 6 39 -24
18 -24 18 -34 -7 -8 -21 -16 -26 -44 -26 -19 0 -38 5 -41 10 -3 6 -23 10 -43
10 -20 0 -45 7 -55 14 -16 12 -15 14 13 26 l30 12 -43 22 c-38 19 -42 25 -41
57 0 42 18 70 59 92 17 9 50 33 75 55 l44 39 -41 26 c-51 32 -89 43 -106 29
-11 -9 -71 -16 -118 -13 -9 1 -33 15 -54 31 -21 17 -45 30 -55 30 -9 0 -29
-13 -45 -30 -16 -16 -33 -30 -38 -30 -5 0 -29 20 -54 45 -48 49 -47 49 -81 33z"/>
<path d="M3657 3543 c-4 -3 -7 -26 -7 -50 0 -36 3 -43 19 -43 27 0 35 33 16
70 -17 32 -18 33 -28 23z"/>
<path d="M4675 2820 c3 -5 10 -10 16 -10 5 0 9 5 9 10 0 6 -7 10 -16 10 -8 0
-12 -4 -9 -10z"/>
<path d="M4750 1535 c0 -26 24 -35 32 -12 7 18 -2 37 -18 37 -8 0 -14 -10 -14
-25z"/>
<path d="M4374 898 c3 -7 9 -21 12 -30 7 -20 20 -23 29 -7 4 5 -1 19 -11 30
-19 21 -39 26 -30 7z"/>
</g>
</svg>
